<?xml version="1.0" encoding="UTF-8"?>
<svg xmlns="http://www.w3.org/2000/svg" xmlns:xlink="http://www.w3.org/1999/xlink" width="24px" height="24px" viewBox="0 0 24 24" version="1.1">
<defs>
<filter id="alpha" filterUnits="objectBoundingBox" x="0%" y="0%" width="100%" height="100%">
  <feColorMatrix type="matrix" in="SourceGraphic" values="0 0 0 0 1 0 0 0 0 1 0 0 0 0 1 0 0 0 1 0"/>
</filter>
<mask id="mask0">
  <g filter="url(#alpha)">
<rect x="0" y="0" width="24" height="24" style="fill:rgb(0%,0%,0%);fill-opacity:0.4;stroke:none;"/>
  </g>
</mask>
<clipPath id="clip1">
  <rect x="0" y="0" width="24" height="24"/>
</clipPath>
<g id="surface5" clip-path="url(#clip1)">
<path style=" stroke:none;fill-rule:nonzero;fill:rgb(35.686275%,35.686275%,37.254903%);fill-opacity:1;" d="M 8.859375 10.070312 C 5.570312 8.773438 4.1875 6.375 3.601562 4.589844 C 2.972656 2.671875 3.117188 1.066406 3.125 0.996094 L 3.171875 0.527344 L 7.039062 0.527344 L 7.039062 1.566406 L 4.148438 1.566406 C 4.152344 2.140625 4.226562 3.167969 4.601562 4.304688 C 5.355469 6.570312 6.917969 8.183594 9.242188 9.101562 Z M 8.859375 10.070312 "/>
</g>
<mask id="mask1">
  <g filter="url(#alpha)">
<rect x="0" y="0" width="24" height="24" style="fill:rgb(0%,0%,0%);fill-opacity:0.4;stroke:none;"/>
  </g>
</mask>
<clipPath id="clip2">
  <rect x="0" y="0" width="24" height="24"/>
</clipPath>
<g id="surface8" clip-path="url(#clip2)">
<path style=" stroke:none;fill-rule:nonzero;fill:rgb(35.686275%,35.686275%,37.254903%);fill-opacity:1;" d="M 11.117188 11.167969 L 12.882812 11.167969 L 12.882812 12.34375 L 11.117188 12.34375 Z M 11.117188 11.167969 "/>
</g>
<mask id="mask2">
  <g filter="url(#alpha)">
<rect x="0" y="0" width="24" height="24" style="fill:rgb(0%,0%,0%);fill-opacity:0.4;stroke:none;"/>
  </g>
</mask>
<clipPath id="clip3">
  <rect x="0" y="0" width="24" height="24"/>
</clipPath>
<g id="surface11" clip-path="url(#clip3)">
<path style=" stroke:none;fill-rule:nonzero;fill:rgb(35.686275%,35.686275%,37.254903%);fill-opacity:1;" d="M 16.460938 17.402344 L 7.539062 17.402344 L 7.539062 17.019531 C 7.539062 16.25 8.164062 15.625 8.933594 15.625 L 15.066406 15.625 C 15.835938 15.625 16.460938 16.25 16.460938 17.019531 Z M 16.460938 17.402344 "/>
</g>
<mask id="mask3">
  <g filter="url(#alpha)">
<rect x="0" y="0" width="24" height="24" style="fill:rgb(0%,0%,0%);fill-opacity:0.301961;stroke:none;"/>
  </g>
</mask>
<clipPath id="clip4">
  <rect x="0" y="0" width="24" height="24"/>
</clipPath>
<g id="surface14" clip-path="url(#clip4)">
<path style=" stroke:none;fill-rule:nonzero;fill:rgb(35.686275%,35.686275%,37.254903%);fill-opacity:1;" d="M 20.875 0.996094 L 20.828125 0.527344 L 18.011719 0.527344 C 18.015625 0.347656 18.015625 0.167969 18.015625 0 C 15.527344 0 12 0 12 0 L 12 24 L 18.183594 24 L 18.183594 22.664062 L 17.589844 22.664062 L 17.589844 17.402344 L 16.460938 17.402344 L 16.460938 17.019531 C 16.460938 16.25 15.835938 15.625 15.066406 15.625 L 12.882812 15.625 L 12.882812 11.601562 C 13.96875 11.386719 14.832031 10.769531 15.523438 9.910156 C 18.535156 8.582031 19.835938 6.300781 20.398438 4.589844 C 21.027344 2.671875 20.882812 1.066406 20.875 0.996094 Z M 19.410156 4.265625 C 18.875 5.898438 17.921875 7.195312 16.570312 8.136719 C 17.464844 6.140625 17.847656 3.636719 17.96875 1.566406 L 19.851562 1.566406 C 19.847656 2.128906 19.777344 3.140625 19.410156 4.265625 Z M 19.410156 4.265625 "/>
</g>
</defs>
<g id="surface1">
<path style=" stroke:none;fill-rule:nonzero;fill:rgb(89.803922%,76.862746%,0%);fill-opacity:1;" d="M 8.859375 10.070312 C 5.570312 8.773438 4.1875 6.375 3.601562 4.589844 C 2.972656 2.671875 3.117188 1.066406 3.125 0.996094 L 3.171875 0.527344 L 7.039062 0.527344 L 7.039062 1.566406 L 4.148438 1.566406 C 4.152344 2.140625 4.226562 3.167969 4.601562 4.304688 C 5.355469 6.570312 6.917969 8.183594 9.242188 9.101562 Z M 8.859375 10.070312 "/>
<use xlink:href="#surface5" mask="url(#mask0)"/>
<path style=" stroke:none;fill-rule:nonzero;fill:rgb(89.803922%,76.862746%,0%);fill-opacity:1;" d="M 11.117188 11.167969 L 12.882812 11.167969 L 12.882812 15.625 L 11.117188 15.625 Z M 11.117188 11.167969 "/>
<path style=" stroke:none;fill-rule:nonzero;fill:rgb(89.803922%,76.862746%,0%);fill-opacity:1;" d="M 16.460938 17.402344 L 7.539062 17.402344 L 7.539062 17.019531 C 7.539062 16.25 8.164062 15.625 8.933594 15.625 L 15.066406 15.625 C 15.835938 15.625 16.460938 16.25 16.460938 17.019531 Z M 16.460938 17.402344 "/>
<path style=" stroke:none;fill-rule:nonzero;fill:rgb(84.705883%,85.09804%,86.666667%);fill-opacity:1;" d="M 6.410156 17.402344 L 17.589844 17.402344 L 17.589844 22.914062 L 6.410156 22.914062 Z M 6.410156 17.402344 "/>
<path style=" stroke:none;fill-rule:nonzero;fill:rgb(100%,100%,100%);fill-opacity:1;" d="M 7.722656 18.714844 L 16.277344 18.714844 L 16.277344 21.601562 L 7.722656 21.601562 Z M 7.722656 18.714844 "/>
<path style=" stroke:none;fill-rule:nonzero;fill:rgb(34.901962%,34.901962%,35.294119%);fill-opacity:1;" d="M 5.816406 22.664062 L 18.183594 22.664062 L 18.183594 24 L 5.816406 24 Z M 5.816406 22.664062 "/>
<use xlink:href="#surface8" mask="url(#mask1)"/>
<path style=" stroke:none;fill-rule:nonzero;fill:rgb(89.803922%,76.862746%,0%);fill-opacity:1;" d="M 20.875 0.996094 L 20.828125 0.527344 L 18.011719 0.527344 C 18.015625 0.347656 18.015625 0.167969 18.015625 0 C 15.527344 0 12 0 12 0 C 12 0 8.472656 0 5.984375 0 C 5.984375 4.042969 6.992188 11.6875 12 11.6875 C 13.511719 11.6875 14.65625 10.992188 15.523438 9.910156 C 18.535156 8.582031 19.835938 6.300781 20.398438 4.589844 C 21.027344 2.671875 20.882812 1.066406 20.875 0.996094 Z M 19.410156 4.265625 C 18.875 5.898438 17.921875 7.195312 16.570312 8.136719 C 17.464844 6.140625 17.847656 3.636719 17.96875 1.566406 L 19.851562 1.566406 C 19.847656 2.128906 19.777344 3.140625 19.410156 4.265625 Z M 19.410156 4.265625 "/>
<use xlink:href="#surface11" mask="url(#mask2)"/>
<use xlink:href="#surface14" mask="url(#mask3)"/>
</g>
</svg>
