<svg width="40" height="40" viewBox="0 0 40 40" fill="none" xmlns="http://www.w3.org/2000/svg">
  <circle cx="16" cy="20" r="2" fill="#2775CA"/>
  <circle cx="24" cy="20" r="2" fill="#2775CA"/>
  <path d="M18 14C15.2 14 13 16.2 13 19H15C15 17.3 16.3 16 18 16C19.7 16 21 17.3 21 19C21 20.7 19.7 22 18 22H17V24H18C19.7 24 21 25.3 21 27C21 28.7 19.7 30 18 30C16.3 30 15 28.7 15 27H13C13 29.8 15.2 32 18 32C20.8 32 23 29.8 23 27C23 25.4 22.2 24 21 23.2C22.2 22.4 23 21 23 19C23 16.2 20.8 14 18 14Z" fill="#2775CA"/>
</svg>
